<?xml version="1.0" encoding="iso-8859-1"?>
<!-- Generator: Adobe Illustrator 19.0.0, SVG Export Plug-In . SVG Version: 6.00 Build 0)  -->
<svg version="1.1" id="Capa_1" xmlns="http://www.w3.org/2000/svg" xmlns:xlink="http://www.w3.org/1999/xlink" x="0px" y="0px"
	 viewBox="0 0 512 512" style="enable-background:new 0 0 512 512;" xml:space="preserve">
<path style="fill:#007551;" d="M417.592,217.83H93.396c-4.197,0-7.599-3.401-7.599-7.599v30.401c0,4.198,3.402,7.599,7.599,7.599
	h324.196c4.197,0,7.599-3.401,7.599-7.599v-30.401C425.191,214.429,421.789,217.83,417.592,217.83z"/>
<path style="fill:#006040;" d="M417.592,217.83h-22.799v22.802c0,4.198-3.402,7.599-7.599,7.599h30.398
	c4.197,0,7.599-3.401,7.599-7.599v-30.401C425.191,214.429,421.789,217.83,417.592,217.83z"/>
<path style="fill:#1DD1A1;" d="M459.177,456.278c-0.014,0-0.026-0.002-0.04-0.002h-21.273h-0.004h-60.77
	c-0.007,0-0.013-0.002-0.02-0.002c-15.363,0-27.862,12.499-27.862,27.862v20.265c0,4.198,3.401,7.599,7.599,7.599h122.593
	c4.198,0,7.599-3.401,7.599-7.599v-20.263C486.999,468.788,474.521,456.298,459.177,456.278z"/>
<g>
	<path style="fill:#10AC84;" d="M377.09,456.276c-0.007,0-0.013-0.002-0.02-0.002c-0.013,0-0.025,0.002-0.039,0.002H377.09z"/>
	<path style="fill:#10AC84;" d="M459.177,456.278c-0.014,0-0.026-0.002-0.04-0.002h-21.273h-0.004h-9.121
		c0.013,0,0.025,0.002,0.04,0.002c15.345,0.02,27.822,12.511,27.822,27.86v20.263c0,4.198-3.401,7.599-7.599,7.599H479.4
		c4.198,0,7.599-3.401,7.599-7.599v-20.263C486.999,468.788,474.521,456.298,459.177,456.278z"/>
</g>
<path style="fill:#CAD0D7;" d="M478.386,390.082c-0.549,0-1.102-0.06-1.648-0.181l-98.598-19.658l-18.801,19.42v-16.173
	c-3.597-44.06,10.567-56.1,13.439-58.065c1.262-0.865,2.757-1.328,4.286-1.33l8.141-0.007c6.052-3.303,25.418-12.921,45.715-12.921
	c15.871,0,29.153,6.029,38.409,17.434c11.053,13.619,16.657,35.112,16.657,63.883c0,2.305-1.046,4.485-2.844,5.927
	C481.779,389.501,480.099,390.082,478.386,390.082z"/>
<path style="fill:#A9B0BB;" d="M469.328,318.6c-9.256-11.404-22.538-17.434-38.409-17.434c-5.515,0-10.959,0.714-16.089,1.815
	c9.602,2.57,17.788,7.842,24.1,15.619c11.053,13.619,16.656,35.112,16.656,63.883c0,1.073-0.234,2.113-0.658,3.069l21.808,4.349
	c0.546,0.122,1.099,0.181,1.648,0.181c1.712,0,3.394-0.58,4.755-1.672c1.797-1.442,2.844-3.621,2.844-5.927
	C485.985,353.712,480.381,332.219,469.328,318.6z"/>
<path style="fill:#B45F4A;" d="M378.139,370.242l-18.8,19.42v13.086c0,0.026,0.004,0.054,0.004,0.079
	c0.045,32.087,26.158,58.177,58.255,58.177c32.123,0,58.257-26.134,58.257-58.257v-0.001l-0.001-13.022L378.139,370.242z"/>
<path style="fill:#A1513D;" d="M475.853,389.724l-30.397-6.061v19.083v0.001c0,26.866-18.284,49.529-43.057,56.233
	c4.848,1.312,9.94,2.024,15.198,2.024c32.123,0,58.257-26.134,58.257-58.257v-0.001L475.853,389.724z"/>
<path style="fill:#884130;" d="M417.598,461.004c-8.579,0-16.723-1.878-24.064-5.224v7.756c0,13.268,10.794,24.064,24.063,24.064
	s24.063-10.794,24.063-24.063v-7.756C434.319,459.125,426.176,461.004,417.598,461.004z"/>
<path style="fill:#54A0FF;" d="M133.955,455.94c-0.013,0-0.026-0.002-0.04-0.002h-20.241c-0.007,0-0.013-0.001-0.02-0.001H52.863
	c-15.364,0-27.862,12.499-27.862,27.862v20.265c0,4.197,3.402,7.599,7.599,7.599h121.58c4.197,0,7.599-3.402,7.599-7.599v-20.263
	C161.778,468.45,149.3,455.961,133.955,455.94z"/>
<path style="fill:#2E86DE;" d="M133.955,455.94c-0.013,0-0.026-0.002-0.04-0.002h-20.241c-0.007,0-0.013-0.001-0.02-0.001
	l-10.138,0.001c0.013,0,0.026,0.002,0.04,0.002c15.345,0.022,27.822,12.512,27.822,27.861v20.263c0,4.197-3.402,7.599-7.599,7.599
	h30.398c4.197,0,7.599-3.402,7.599-7.599v-20.263C161.778,468.45,149.3,455.961,133.955,455.94z"/>
<path style="fill:#FF9F43;" d="M151.644,372.348L151.644,372.348c0-32.123-26.134-58.257-58.256-58.258
	c-32.122,0.001-58.256,26.135-58.256,58.257v0.001h-0.08l0.078,9.942l0.002,4.771l11.505-15.261
	c7.336,3.29,33.944,8.156,46.75,8.156s39.414-4.866,46.75-8.156l11.505,15.261l0.002-4.771l0.078-9.942H151.644z"/>
<path style="fill:#EA8634;" d="M151.644,372.348L151.644,372.348c0-32.123-26.134-58.257-58.256-58.258
	c-5.258,0-10.35,0.712-15.199,2.024c24.774,6.703,43.057,29.368,43.057,56.233v0.001h0.08l-0.033,4.308
	c8.191-1.541,15.511-3.362,18.846-4.857l11.505,15.261l0.002-4.771l0.078-9.942h-0.08V372.348z"/>
<path style="fill:#FFCDBF;" d="M151.644,387.06l-11.505-15.261c-7.336,3.29-33.943,8.156-46.75,8.156s-39.414-4.866-46.75-8.156
	L35.132,387.06v15.947c0,0.089,0.01,0.175,0.013,0.263c0.284,31.881,26.297,57.733,58.244,57.733
	c32.122,0,58.257-26.134,58.257-58.257l-0.001-18.97L151.644,387.06z"/>
<path style="fill:#FECA57;" d="M151.644,372.347L151.644,372.347l0.001,0.001v-0.002c0-0.013-0.002-0.025-0.002-0.04
	C151.643,372.319,151.644,372.333,151.644,372.347z"/>
<path style="fill:#FFB098;" d="M93.389,461.004c-8.579,0-16.723-1.878-24.064-5.224v7.756c0,13.268,10.794,24.064,24.063,24.064
	s24.063-10.794,24.063-24.063v-7.756C110.111,459.125,101.968,461.004,93.389,461.004z"/>
<path style="fill:#FFBEAB;" d="M151.645,383.777l-0.001,3.283l-11.505-15.261c-3.34,1.498-10.681,3.321-18.89,4.865v26.084
	c0,26.864-18.283,49.527-43.055,56.232c4.848,1.312,9.939,2.025,15.196,2.025c32.122,0,58.257-26.134,58.257-58.257L151.645,383.777
	z"/>
<g>
	<path style="fill:#D83941;" d="M197.238,402.828c0-0.013-0.001-0.025-0.002-0.04v59.534c4.821-3.987,11-6.386,17.73-6.386h16.807
		C211.466,446.844,197.27,426.471,197.238,402.828z"/>
	<path style="fill:#D83941;" d="M279.213,455.937h6.679c0.007,0,0.013,0.001,0.02,0.001h10.108c0.013,0,0.025,0.002,0.04,0.002
		c6.714,0.01,12.879,2.406,17.691,6.386v-59.578C313.749,426.425,299.543,446.833,279.213,455.937z"/>
</g>
<path d="M306.151,379.94c-4.198,0-7.599-3.401-7.599-7.599c0-23.743-19.316-43.059-43.059-43.059
	c-23.742,0-43.058,19.316-43.058,43.059c0,4.198-3.402,7.599-7.599,7.599s-7.599-3.401-7.599-7.599
	c0-32.122,26.134-58.257,58.256-58.257c32.123,0,58.257,26.135,58.257,58.257C313.749,376.539,310.347,379.94,306.151,379.94z"/>
<path style="fill:#FF9FF3;" d="M296.058,455.94c-0.014,0-0.026-0.002-0.04-0.002h-10.108c-0.007,0-0.013-0.001-0.02-0.001h-70.925
	c-15.364,0-27.862,12.499-27.862,27.862v20.265c0,4.197,3.402,7.599,7.599,7.599h121.58c4.198,0,7.599-3.402,7.599-7.599v-20.263
	C323.881,468.45,311.402,455.961,296.058,455.94z"/>
<path style="fill:#F368E0;" d="M296.058,455.94c-0.014,0-0.026-0.002-0.04-0.002h-10.108c-0.007,0-0.013-0.001-0.02-0.001h-30.398
	c0.007,0,0.013,0.001,0.019,0.001h10.108c0.013,0,0.025,0.002,0.04,0.002c15.344,0.022,27.822,12.512,27.822,27.861v20.263
	c0,4.197-3.401,7.599-7.599,7.599h30.398c4.198,0,7.599-3.402,7.599-7.599v-20.263C323.881,468.45,311.402,455.961,296.058,455.94z"
	/>
<path style="fill:#FFB098;" d="M255.496,461.004c-8.579,0-16.723-1.878-24.064-5.224v7.756c0,13.268,10.794,24.064,24.063,24.064
	c13.268,0,24.063-10.794,24.063-24.063v-7.756C272.218,459.125,264.074,461.004,255.496,461.004z"/>
<path style="fill:#FF6B6B;" d="M255.49,314.085c-32.123,0-58.257,26.135-58.257,58.257l0,0l0.001,13.438l106.36-46.254
	C293.091,324.179,275.45,314.085,255.49,314.085z"/>
<path style="fill:#EE5253;" d="M313.745,372.26c-0.017-12.138-3.77-23.413-10.16-32.747c0.003,0.004,0.006,0.008,0.009,0.012
	l-48.099,20.917l58.254,25.338v-13.44C313.749,372.314,313.745,372.288,313.745,372.26z"/>
<g>
	<polygon style="fill:#D83941;" points="303.585,339.513 303.593,339.524 303.593,339.524 	"/>
	<path style="fill:#D83941;" d="M313.745,372.26c-0.002-1.516-0.062-3.019-0.179-4.507c-0.047-0.595-0.109-1.183-0.173-1.772
		c-0.016-0.148-0.026-0.299-0.044-0.447c-0.074-0.629-0.162-1.252-0.256-1.876c-0.016-0.104-0.026-0.214-0.044-0.318
		c-0.106-0.689-0.229-1.372-0.36-2.051c-0.007-0.038-0.013-0.078-0.021-0.118c-0.274-1.4-0.599-2.782-0.971-4.145
		c-0.009-0.034-0.017-0.07-0.026-0.104c-0.754-2.743-1.706-5.403-2.837-7.97c-0.021-0.048-0.04-0.096-0.061-0.144
		c-0.241-0.544-0.495-1.081-0.753-1.617c-0.052-0.106-0.098-0.217-0.15-0.322c-0.241-0.495-0.496-0.983-0.752-1.47
		c-0.074-0.143-0.144-0.288-0.22-0.43c-0.224-0.418-0.46-0.83-0.694-1.244c-0.117-0.204-0.227-0.413-0.345-0.616
		c-0.204-0.35-0.418-0.692-0.629-1.037c-0.158-0.259-0.312-0.523-0.474-0.78c-0.167-0.265-0.344-0.523-0.517-0.783
		c-0.215-0.328-0.426-0.659-0.646-0.984l-24.618,10.706c2.801,6.798,4.361,14.235,4.371,22.029c0,0.027,0.004,0.054,0.004,0.08
		v0.217l30.398,13.223v-13.44C313.749,372.314,313.745,372.288,313.745,372.26z"/>
</g>
<path style="fill:#EE5253;" d="M252.133,314.188c-0.778,0.045-1.551,0.102-2.32,0.177c-0.297,0.028-0.592,0.066-0.888,0.099
	c-0.552,0.062-1.102,0.133-1.649,0.21c-0.404,0.059-0.81,0.119-1.212,0.184c-0.386,0.064-0.768,0.137-1.152,0.206
	c-0.783,0.147-1.561,0.305-2.332,0.481c-0.235,0.053-0.468,0.105-0.701,0.162c-0.528,0.127-1.055,0.257-1.577,0.399
	c13.548,3.67,25.155,12.113,32.888,23.41c-0.001-0.002-0.002-0.003-0.003-0.004c0.003,0.004,0.006,0.008,0.009,0.012
	c2.283,3.336,4.221,6.924,5.78,10.706l24.618-10.706c-0.273-0.398-0.552-0.789-0.834-1.181c-0.059-0.08-0.113-0.162-0.172-0.243
	c-0.327-0.449-0.663-0.893-1.002-1.331c-0.015-0.02-0.028-0.04-0.044-0.058c-0.287-0.37-0.581-0.735-0.875-1.096
	c-0.071-0.087-0.14-0.178-0.212-0.265c-0.287-0.348-0.581-0.689-0.874-1.03c-0.084-0.098-0.166-0.198-0.251-0.295
	c-0.283-0.323-0.572-0.641-0.863-0.958c-0.102-0.109-0.199-0.224-0.301-0.332c-0.254-0.275-0.516-0.542-0.776-0.812
	c-0.143-0.148-0.282-0.299-0.427-0.446c-0.233-0.236-0.473-0.466-0.709-0.699c-0.177-0.172-0.351-0.35-0.529-0.521
	c-0.205-0.196-0.416-0.388-0.625-0.581c-0.216-0.201-0.43-0.404-0.649-0.603c-0.213-0.191-0.433-0.378-0.648-0.568
	c-0.22-0.191-0.437-0.388-0.659-0.575c-0.231-0.196-0.467-0.386-0.7-0.578c-0.215-0.176-0.426-0.357-0.642-0.528
	c-0.214-0.171-0.433-0.336-0.648-0.504c-0.242-0.188-0.482-0.379-0.727-0.563c-0.251-0.19-0.508-0.372-0.762-0.556
	c-0.215-0.156-0.428-0.317-0.644-0.47c-0.288-0.204-0.583-0.4-0.874-0.599c-0.188-0.129-0.374-0.26-0.564-0.386
	c-0.344-0.229-0.694-0.449-1.045-0.671c-0.142-0.089-0.28-0.182-0.422-0.272c-0.268-0.166-0.54-0.324-0.812-0.486
	c-0.23-0.138-0.457-0.279-0.69-0.413c-0.197-0.115-0.398-0.222-0.597-0.334c-0.309-0.174-0.616-0.352-0.929-0.521
	c-0.238-0.129-0.482-0.25-0.722-0.376c-0.277-0.144-0.553-0.293-0.833-0.434c-0.253-0.128-0.512-0.247-0.767-0.372
	c-0.272-0.131-0.54-0.265-0.815-0.393c-0.216-0.1-0.436-0.193-0.652-0.291c-0.318-0.144-0.635-0.29-0.955-0.427
	c-0.115-0.05-0.232-0.095-0.348-0.143c-0.427-0.18-0.854-0.359-1.286-0.529c-0.095-0.036-0.19-0.07-0.286-0.106
	c-0.454-0.176-0.91-0.35-1.371-0.515c-0.085-0.029-0.171-0.057-0.256-0.087c-0.472-0.166-0.946-0.329-1.423-0.485
	c-0.171-0.056-0.345-0.105-0.518-0.158c-0.394-0.123-0.786-0.247-1.183-0.362c-0.218-0.064-0.439-0.119-0.657-0.18
	c-0.356-0.098-0.709-0.2-1.068-0.291c-0.142-0.036-0.286-0.067-0.429-0.103c-1.017-0.253-2.044-0.483-3.08-0.681
	c-0.033-0.007-0.067-0.012-0.101-0.018c-0.558-0.105-1.119-0.205-1.682-0.295c-0.004,0-0.007-0.001-0.011-0.002
	c-0.594-0.093-1.19-0.178-1.789-0.255c-0.154-0.018-0.31-0.032-0.464-0.052c-0.99-0.116-1.986-0.212-2.99-0.279
	c-0.437-0.028-0.874-0.05-1.313-0.068c-0.863-0.039-1.727-0.065-2.599-0.065c-0.879,0-1.752,0.027-2.622,0.066
	C252.622,314.162,252.377,314.174,252.133,314.188z"/>
<path style="fill:#FFCDBF;" d="M313.748,385.779l-58.253-25.337l-58.262,25.337l-0.001,16.969c0,0.026,0.004,0.054,0.004,0.079
	c0.044,32.087,26.159,58.177,58.255,58.177c32.123,0,58.257-26.134,58.257-58.257v-0.001V385.779z"/>
<path style="fill:#FFBEAB;" d="M313.748,385.779l-30.398-13.222l0.001,30.189v0.001c0,26.866-18.284,49.529-43.057,56.233
	c4.848,1.312,9.941,2.024,15.198,2.024c32.123,0,58.257-26.134,58.257-58.257v-0.001L313.748,385.779z"/>
<path style="fill:#10AC84;" d="M417.592,187.433H93.396c-4.197,0-7.599-3.401-7.599-7.599V7.599C85.798,3.401,89.2,0,93.396,0
	h324.196c4.197,0,7.599,3.401,7.599,7.599v172.236C425.191,184.032,421.789,187.433,417.592,187.433z"/>
<path style="fill:#009167;" d="M417.592,187.433H93.396c-4.197,0-7.599-3.401-7.599-7.599v30.401c0,4.198,3.402,7.599,7.599,7.599
	h324.196c4.197,0,7.599-3.401,7.599-7.599v-30.401C425.191,184.032,421.789,187.433,417.592,187.433z"/>
<path style="fill:#007551;" d="M417.592,187.433h-22.799v22.802c0,4.198-3.402,7.599-7.599,7.599h30.398
	c4.197,0,7.599-3.401,7.599-7.599v-30.401C425.191,184.032,421.789,187.433,417.592,187.433z"/>
<path style="fill:#009167;" d="M417.592,0h-30.398c4.197,0,7.599,3.401,7.599,7.599v172.236c0,4.198-3.402,7.599-7.599,7.599h30.398
	c4.197,0,7.599-3.401,7.599-7.599V7.599C425.191,3.401,421.789,0,417.592,0z"/>
<path style="fill:#1DD1A1;" d="M377.07,157.044H133.914c-4.197,0-7.599-3.401-7.599-7.599c0-1.397-1.137-2.533-2.533-2.533
	c-4.197,0-7.599-3.401-7.599-7.599V48.129c0-4.198,3.402-7.599,7.599-7.599c1.396,0,2.533-1.136,2.533-2.533
	c0-4.198,3.402-7.599,7.599-7.599h243.157c4.197,0,7.599,3.401,7.599,7.599c0,1.397,1.136,2.533,2.533,2.533
	c4.197,0,7.599,3.401,7.599,7.599v91.185c0,4.198-3.402,7.599-7.599,7.599c-1.397,0-2.533,1.136-2.533,2.533
	C384.669,153.642,381.266,157.044,377.07,157.044z"/>
<path style="fill:#10AC84;" d="M255.492,136.781c-23.743,0-43.059-19.317-43.059-43.059c0-23.743,19.316-43.059,43.059-43.059
	s43.059,19.316,43.059,43.059C298.552,117.464,279.236,136.781,255.492,136.781z"/>
<g>
	<path style="fill:#576574;" d="M255.494,298.887c-4.197,0-7.599-3.401-7.599-7.599v-20.265c0-4.198,3.402-7.599,7.599-7.599
		c4.197,0,7.599,3.401,7.599,7.599v20.265C263.093,295.486,259.691,298.887,255.494,298.887z"/>
	<path style="fill:#576574;" d="M417.599,288.756c-4.197,0-7.599-3.401-7.599-7.599v-10.134c0-4.198,3.402-7.599,7.599-7.599
		c4.197,0,7.599,3.401,7.599,7.599v10.134C425.197,285.354,421.795,288.756,417.599,288.756z"/>
	<path style="fill:#576574;" d="M93.389,298.887c-4.197,0-7.599-3.401-7.599-7.599v-20.265c0-4.198,3.402-7.599,7.599-7.599
		c4.197,0,7.599,3.401,7.599,7.599v20.265C100.988,295.486,97.586,298.887,93.389,298.887z"/>
</g>
<g>
</g>
<g>
</g>
<g>
</g>
<g>
</g>
<g>
</g>
<g>
</g>
<g>
</g>
<g>
</g>
<g>
</g>
<g>
</g>
<g>
</g>
<g>
</g>
<g>
</g>
<g>
</g>
<g>
</g>
</svg>
