<?xml version="1.0" encoding="iso-8859-1"?>
<!-- Generator: Adobe Illustrator 19.0.0, SVG Export Plug-In . SVG Version: 6.00 Build 0)  -->
<svg version="1.1" id="Capa_1" xmlns="http://www.w3.org/2000/svg" xmlns:xlink="http://www.w3.org/1999/xlink" x="0px" y="0px"
	 viewBox="0 0 512 512" style="enable-background:new 0 0 512 512;" xml:space="preserve">
<path style="fill:#F2C09A;" d="M308.068,468.61v-34.712c11.411-22.832,17.356-47.998,17.356-73.52v-65.328
	c0-9.589-7.767-17.356-17.356-17.356c-9.589,0-17.356,7.767-17.356,17.356v-26.034c0-9.589-7.767-17.356-17.356-17.356
	S256,259.428,256,269.017v-34.712c0-9.589-7.767-17.356-17.356-17.356c-9.589,0-17.356,7.767-17.356,17.356v26.034
	c0-9.589-7.767-17.356-17.356-17.356c-9.589,0-17.356,7.767-17.356,17.356v69.424c-23.96,0-43.39,19.43-43.39,43.39v0.868
	c0,15.577,8.34,29.956,21.86,37.68l25.166,14.353c8.487,4.868,13.72,13.902,13.72,23.682v18.875H308.068z"/>
<rect x="186.576" y="468.61" style="fill:#0071BC;" width="138.847" height="43.39"/>
<path style="fill:#29ABE2;" d="M490.305,216.949h-95.458l-52.068,34.712v-34.712h-26.034c-9.589,0-17.356-7.767-17.356-17.356
	V95.458c0-9.589,7.767-17.356,17.356-17.356h173.559c9.589,0,17.356,7.767,17.356,17.356v104.136
	C507.661,209.182,499.894,216.949,490.305,216.949z"/>
<path style="fill:#0071BC;" d="M21.695,182.237h95.458l52.068,34.712v-34.712h26.034c9.589,0,17.356-7.767,17.356-17.356V60.746
	c0-9.589-7.767-17.356-17.356-17.356H21.695c-9.589,0-17.356,7.767-17.356,17.356v104.136
	C4.339,174.471,12.106,182.237,21.695,182.237z"/>
<g>
	<rect x="56.407" y="69.424" style="fill:#29ABE2;" width="17.356" height="17.356"/>
	<rect x="91.119" y="69.424" style="fill:#29ABE2;" width="86.78" height="17.356"/>
	<rect x="39.051" y="104.136" style="fill:#29ABE2;" width="138.847" height="17.356"/>
	<rect x="39.051" y="138.847" style="fill:#29ABE2;" width="104.136" height="17.356"/>
</g>
<g>
	<rect x="351.458" y="104.136" style="fill:#80CAEC;" width="17.356" height="17.356"/>
	<rect x="386.169" y="104.136" style="fill:#80CAEC;" width="86.78" height="17.356"/>
	<rect x="334.102" y="138.847" style="fill:#80CAEC;" width="138.847" height="17.356"/>
	<rect x="334.102" y="173.559" style="fill:#80CAEC;" width="104.136" height="17.356"/>
</g>
<g>
	<path style="fill:#B3B3B3;" d="M256,69.424h-17.356V43.39c0-14.379-11.655-26.034-26.034-26.034h-86.78V0h86.78
		c23.951,0.026,43.364,19.439,43.39,43.39V69.424z"/>
	<rect x="91.119" style="fill:#B3B3B3;" width="17.356" height="17.356"/>
	<rect x="412.203" y="242.983" style="fill:#B3B3B3;" width="78.102" height="17.356"/>
	<rect x="351.458" y="321.085" style="fill:#B3B3B3;" width="17.356" height="78.102"/>
	<rect x="351.458" y="416.542" style="fill:#B3B3B3;" width="17.356" height="17.356"/>
</g>
<g>
	<path style="fill:#E9937C;" d="M186.576,364.475c-4.79,0-8.678-3.888-8.678-8.678v-26.034c0-4.79,3.888-8.678,8.678-8.678
		s8.678,3.888,8.678,8.678v26.034C195.254,360.587,191.367,364.475,186.576,364.475z"/>
	<path style="fill:#E9937C;" d="M256,329.763c-4.79,0-8.678-3.888-8.678-8.678v-52.068c0-4.79,3.888-8.678,8.678-8.678
		c4.79,0,8.678,3.888,8.678,8.678v52.068C264.678,325.875,260.79,329.763,256,329.763z"/>
	<path style="fill:#E9937C;" d="M221.288,321.085c-4.79,0-8.678-3.888-8.678-8.678v-43.39c0-4.79,3.888-8.678,8.678-8.678
		s8.678,3.888,8.678,8.678v43.39C229.966,317.197,226.078,321.085,221.288,321.085z"/>
	<path style="fill:#E9937C;" d="M290.712,338.441c-4.79,0-8.678-3.888-8.678-8.678v-26.034c0-4.79,3.888-8.678,8.678-8.678
		s8.678,3.888,8.678,8.678v26.034C299.39,334.553,295.502,338.441,290.712,338.441z"/>
</g>
<g>
</g>
<g>
</g>
<g>
</g>
<g>
</g>
<g>
</g>
<g>
</g>
<g>
</g>
<g>
</g>
<g>
</g>
<g>
</g>
<g>
</g>
<g>
</g>
<g>
</g>
<g>
</g>
<g>
</g>
</svg>
