<?xml version="1.0" encoding="iso-8859-1"?>
<!-- Generator: Adobe Illustrator 19.0.0, SVG Export Plug-In . SVG Version: 6.00 Build 0)  -->
<svg version="1.1" id="Capa_1" xmlns="http://www.w3.org/2000/svg" xmlns:xlink="http://www.w3.org/1999/xlink" x="0px" y="0px"
	 viewBox="0 0 512 512" style="enable-background:new 0 0 512 512;" xml:space="preserve">
<rect x="190.698" y="239.484" style="fill:#FBB540;" width="206.452" height="57.806"/>
<rect x="190.698" y="239.484" style="fill:#EA9D2D;" width="206.452" height="16.516"/>
<g>
	<rect x="215.472" y="181.677" style="fill:#D68F29;" width="206.452" height="57.806"/>
	<rect x="215.472" y="66.065" style="fill:#D68F29;" width="206.452" height="57.806"/>
</g>
<rect x="215.472" y="66.065" style="fill:#B47923;" width="181.677" height="16.516"/>
<g>
	<rect x="190.698" y="123.871" style="fill:#FBB540;" width="206.452" height="57.806"/>
	<rect x="190.698" y="8.258" style="fill:#FBB540;" width="206.452" height="57.806"/>
</g>
<g>
	<rect x="231.988" y="239.484" style="fill:#EA9D2D;" width="16.516" height="57.806"/>
	<rect x="273.279" y="239.484" style="fill:#EA9D2D;" width="16.516" height="57.806"/>
</g>
<g>
	<rect x="256.763" y="66.065" style="fill:#B47923;" width="16.516" height="57.806"/>
	<rect x="364.117" y="66.065" style="fill:#B47923;" width="16.516" height="57.806"/>
	<rect x="215.472" y="181.677" style="fill:#B47923;" width="206.452" height="16.516"/>
</g>
<g>
	<rect x="190.698" y="123.871" style="fill:#EA9D2D;" width="206.452" height="16.516"/>
	<rect x="273.279" y="123.871" style="fill:#EA9D2D;" width="16.516" height="57.806"/>
	<rect x="231.988" y="8.258" style="fill:#EA9D2D;" width="16.516" height="57.806"/>
	<rect x="273.279" y="8.258" style="fill:#EA9D2D;" width="16.516" height="57.806"/>
	<rect x="231.988" y="123.871" style="fill:#EA9D2D;" width="16.516" height="57.806"/>
</g>
<g>
	<rect x="256.763" y="181.677" style="fill:#B47923;" width="16.516" height="57.806"/>
	<rect x="364.117" y="181.677" style="fill:#B47923;" width="16.516" height="57.806"/>
</g>
<path style="fill:#F6BB92;" d="M498.782,304.756c-5.062-11.231-13.675-19.365-24.906-23.511
	c-13.494-4.988-29.952-3.716-45.551,3.625l-130.981,70.227h-51.506c5.054-6.92,8.167-15.443,8.167-24.774
	c0-22.767-17.862-41.29-39.82-41.29H125.17c-21.033,0-41.819,5.508-60.143,15.955l-39.49,22.858l-16.516,8.671V503.37
	c0,6.747,7.647,10.645,13.114,6.681l3.402-2.469c31.554-22.751,74.719-36.872,113.433-36.872h159.083c0,0,0.917,0,1.379,0
	c1.429,0,2.882-0.372,4.203-1.156L483.24,363.148C501.523,349.902,508.064,325.343,498.782,304.756z"/>
<path style="fill:#FDC9A6;" d="M138.969,446.621h159.083c0,0,0.917,0,1.379,0c1.429,0,2.882-0.372,4.203-1.156L483.24,339.06
	c9.241-6.697,15.451-16.285,18.168-26.781c-0.661-2.543-1.519-5.07-2.626-7.531c-5.062-11.231-13.675-19.365-24.906-23.511
	c-13.494-4.988-29.952-3.716-45.551,3.625l-130.981,70.235h-51.506c5.054-6.92,8.167-15.443,8.167-24.774
	c0-22.767-17.862-41.29-39.82-41.29H125.17c-21.033,0-41.819,5.508-60.143,15.955l-39.49,22.858l-16.516,8.671v158.968
	l16.516-11.991C57.091,460.742,100.256,446.621,138.969,446.621z"/>
<path d="M473.884,281.253c-13.494-4.988-29.952-3.716-45.551,3.625l-22.924,12.288v-49.425h24.774v-74.323h-24.774v-41.29h24.774
	V57.806h-24.774V0H182.44v74.323h24.774v41.29H182.44v74.323h24.774v41.29H182.44v57.806h-57.27
	c-21.033,0-41.819,5.508-59.755,15.74l-51.894,26.451c-2.758,1.412-4.501,4.253-4.501,7.358v165.161c0,3.122,1.759,5.979,4.55,7.383
	c1.173,0.586,2.444,0.875,3.708,0.875c1.742,0,3.477-0.553,4.93-1.635c32.355-24.089,78.179-39.655,116.761-39.655h160.462
	c1.478,0,2.932-0.396,4.212-1.156l179.605-106.405c18.283-13.246,24.815-37.805,15.542-58.393
	C493.719,293.525,485.106,285.399,473.884,281.253z M245.837,305.548h143.938l-92.424,49.548h-51.324
	c5.013-6.904,7.986-15.484,7.986-24.774C254.013,320.991,250.891,312.469,245.837,305.548z M364.117,74.323v41.29h-90.839v-41.29
	H364.117z M273.279,132.129v41.29h-24.774v-41.29H273.279z M364.117,189.935v41.29h-90.839v-41.29H364.117z M273.279,247.742v41.29
	h-24.774v-41.29H273.279z M388.892,289.032h-99.097v-41.29h99.097V289.032z M413.666,189.935v41.29h-8.258h-24.774v-41.29h24.774
	H413.666z M388.892,173.419h-99.097v-41.29h99.097V173.419z M413.666,74.323v41.29h-8.258h-24.774v-41.29h24.774H413.666z
	 M388.892,16.516v41.29h-99.097v-41.29H388.892z M273.279,16.516v41.29h-24.774v-41.29H273.279z M198.956,57.806v-41.29h33.032
	v41.29h-24.774H198.956z M223.73,74.323h33.032v41.29H223.73V74.323z M198.956,173.419v-41.29h8.258h24.774v41.29h-24.774H198.956z
	 M223.73,189.935h33.032v41.29H223.73V189.935z M198.956,247.742h8.258h24.774v41.29h-17.804h-15.228V247.742z M474.189,349.366
	l-177.02,104.828h-158.2c-36.881,0-79.798,13.048-113.433,33.957V343.635l47.723-24.328c15.789-9.001,33.742-13.758,51.91-13.758
	h57.27h31.744c12.85,0,23.304,11.115,23.304,24.774s-10.455,24.774-23.304,24.774H141.15v16.516h158.282
	c1.363,0,2.7-0.339,3.906-0.983l132.426-71.003c11.231-5.285,23.032-6.35,32.405-2.89c7.085,2.61,12.321,7.597,15.566,14.807
	C489.805,325.021,485.519,341.108,474.189,349.366z"/>
<g>
</g>
<g>
</g>
<g>
</g>
<g>
</g>
<g>
</g>
<g>
</g>
<g>
</g>
<g>
</g>
<g>
</g>
<g>
</g>
<g>
</g>
<g>
</g>
<g>
</g>
<g>
</g>
<g>
</g>
</svg>
