<?xml version="1.0" encoding="iso-8859-1"?>
<!-- Generator: Adobe Illustrator 19.0.0, SVG Export Plug-In . SVG Version: 6.00 Build 0)  -->
<svg version="1.1" id="Capa_1" xmlns="http://www.w3.org/2000/svg" xmlns:xlink="http://www.w3.org/1999/xlink" x="0px" y="0px"
	 viewBox="0 0 512 512" style="enable-background:new 0 0 512 512;" xml:space="preserve">
<circle style="fill:#136EF1;" cx="256" cy="256" r="256"/>
<path style="fill:#0E53B5;" d="M511.767,266.539L361.879,117l-48.867,32.578L256,183l-25.012-33.422l-32-32.578L117,395
	l115.956,115.956C240.549,511.634,248.231,512,256,512C393.853,512,506.237,403.035,511.767,266.539z"/>
<polygon style="fill:#FF3636;" points="395,149.578 395,214.734 368.395,231.023 138.23,231.023 117,214.734 117,149.578 "/>
<polygon style="fill:#F40000;" points="395,149.578 395,214.734 368.395,231.023 256,231.023 256,149.578 "/>
<path style="fill:#E7E7E7;" d="M117,214.734V395h278V214.734H117z"/>
<g>
	<rect x="256" y="214.73" style="fill:#D3D3D8;" width="139" height="180.27"/>
	<path style="fill:#D3D3D8;" d="M198.988,296.18h-48.867v-48.867h48.867V296.18z"/>
	<path style="fill:#D3D3D8;" d="M198.988,361.336h-48.867v-48.867h48.867V361.336z"/>
	<path style="fill:#D3D3D8;" d="M231.566,247.313v48.867h48.867v-48.867L231.566,247.313L231.566,247.313z"/>
	<path style="fill:#D3D3D8;" d="M231.566,312.469v48.867h48.867v-48.867H231.566z"/>
</g>
<g>
	<path style="fill:#BABAC0;" d="M361.879,296.18h-48.867v-48.867h48.867V296.18z"/>
	<path style="fill:#BABAC0;" d="M361.879,361.336h-48.867v-48.867h48.867V361.336z"/>
	<rect x="256" y="247.31" style="fill:#BABAC0;" width="24.434" height="48.867"/>
	<rect x="256" y="312.47" style="fill:#BABAC0;" width="24.434" height="48.867"/>
</g>
<path style="fill:#E7E7E7;" d="M198.988,198.445h-48.867V117h48.867V198.445z"/>
<path style="fill:#D3D3D8;" d="M361.879,198.445h-48.867V117h48.867V198.445z"/>
<g>
</g>
<g>
</g>
<g>
</g>
<g>
</g>
<g>
</g>
<g>
</g>
<g>
</g>
<g>
</g>
<g>
</g>
<g>
</g>
<g>
</g>
<g>
</g>
<g>
</g>
<g>
</g>
<g>
</g>
</svg>
