<?xml version="1.0" encoding="iso-8859-1"?>
<!-- Generator: Adobe Illustrator 19.0.0, SVG Export Plug-In . SVG Version: 6.00 Build 0)  -->
<svg version="1.1" id="Capa_1" xmlns="http://www.w3.org/2000/svg" xmlns:xlink="http://www.w3.org/1999/xlink" x="0px" y="0px"
	 viewBox="0 0 480 480" style="enable-background:new 0 0 480 480;" xml:space="preserve">
<polyline style="fill:#BABDBF;" points="416,304 480,304 480,64 416,64 416,0 224,0 224,304 256,304 "/>
<circle style="fill:#DFA738;" cx="112" cy="152" r="72"/>
<polyline style="fill:#304F1E;" points="272,240 272,208 416,208 416,448 384,448 "/>
<rect x="256" y="240" style="fill:#406928;" width="128" height="240"/>
<polygon style="fill:#737272;" points="32,480 32,384 0,384 112,320 224,384 192,384 192,480 "/>
<g>
	<rect x="88" y="400" style="fill:#BABDBF;" width="48" height="80"/>
	<rect x="32" y="448" style="fill:#BABDBF;" width="56" height="32"/>
	<rect x="136" y="448" style="fill:#BABDBF;" width="56" height="32"/>
</g>
<g>
	<path style="fill:#404040;" d="M112,192H88v-16h24c4.8,0,8-3.2,8-8s-3.2-8-8-8c-13.6,0-24-10.4-24-24s10.4-24,24-24h24v16h-24
		c-4.8,0-8,3.2-8,8s3.2,8,8,8c13.6,0,24,10.4,24,24S125.6,192,112,192z"/>
	<rect x="104" y="96" style="fill:#404040;" width="16" height="24"/>
	<rect x="104" y="184" style="fill:#404040;" width="16" height="24"/>
	<rect x="104" y="248" style="fill:#404040;" width="16" height="48"/>
	<rect x="72" y="248" style="fill:#404040;" width="16" height="48"/>
	<rect x="136" y="248" style="fill:#404040;" width="16" height="48"/>
	<rect x="40" y="232" style="fill:#404040;" width="16" height="64"/>
	<rect x="168" y="232" style="fill:#404040;" width="16" height="64"/>
	<rect x="40" y="312" style="fill:#404040;" width="16" height="16"/>
	<rect x="168" y="312" style="fill:#404040;" width="16" height="16"/>
</g>
<polygon style="fill:#737272;" points="480,64 416,0 416,64 "/>
<g>
	<path style="fill:#589137;" d="M288,240L288,240c0,17.6-14.4,32-32,32l0,0v-32H288z"/>
	<path style="fill:#589137;" d="M384,272L384,272c-17.6,0-32-14.4-32-32h32V272z"/>
	<path style="fill:#589137;" d="M352,480L352,480c0-17.6,14.4-32,32-32l0,0v32H352z"/>
	<path style="fill:#589137;" d="M256,448L256,448c17.6,0,32,14.4,32,32h-32V448z"/>
	<circle style="fill:#589137;" cx="320" cy="360" r="24"/>
</g>
<g>
	<rect x="280" y="288" style="fill:#304F1E;" width="16" height="16"/>
	<rect x="344" y="288" style="fill:#304F1E;" width="16" height="16"/>
	<rect x="280" y="416" style="fill:#304F1E;" width="16" height="16"/>
	<rect x="344" y="416" style="fill:#304F1E;" width="16" height="16"/>
</g>
<g>
	<rect x="248" y="24" style="fill:#737272;" width="144" height="16"/>
	<rect x="248" y="56" style="fill:#737272;" width="144" height="16"/>
	<rect x="248" y="88" style="fill:#737272;" width="208" height="16"/>
	<path style="fill:#737272;" d="M272,168c-2.4,0-4-0.8-5.6-2.4l-16-16l11.2-11.2l10.4,10.4l26.4-26.4l11.2,11.2l-32,32
		C276,167.2,274.4,168,272,168z"/>
	<rect x="312" y="152" style="fill:#737272;" width="144" height="16"/>
</g>
<g>
</g>
<g>
</g>
<g>
</g>
<g>
</g>
<g>
</g>
<g>
</g>
<g>
</g>
<g>
</g>
<g>
</g>
<g>
</g>
<g>
</g>
<g>
</g>
<g>
</g>
<g>
</g>
<g>
</g>
</svg>
